<?xml version="1.0" standalone="no"?>
<!DOCTYPE svg PUBLIC "-//W3C//DTD SVG 20010904//EN"
 "http://www.w3.org/TR/2001/REC-SVG-20010904/DTD/svg10.dtd">
<svg version="1.0" xmlns="http://www.w3.org/2000/svg"
 width="558.000000pt" height="558.000000pt" viewBox="0 0 558.000000 558.000000"
 preserveAspectRatio="xMidYMid meet">
<metadata>
Created by potrace 1.11, written by Peter Selinger 2001-2013
</metadata>
<g transform="translate(0.000000,558.000000) scale(0.100000,-0.100000)"
fill="#000000" stroke="none">
<path d="M2654 4544 c-34 -17 -55 -65 -47 -108 9 -43 57 -76 114 -77 209 -3
214 -2 248 32 48 47 39 118 -19 152 -39 23 -250 24 -296 1z"/>
<path d="M2426 4438 c-191 -55 -351 -143 -486 -265 -14 -13 -28 -23 -31 -23
-4 0 -18 -18 -33 -40 l-27 -41 26 -30 c24 -29 29 -47 27 -95 0 -12 -26 -73
-56 -136 -50 -104 -59 -117 -96 -136 -26 -13 -53 -18 -75 -15 -21 3 -35 0 -35
-6 0 -6 0 -12 -1 -13 -25 -87 -40 -358 -20 -358 5 0 13 5 16 10 28 45 343 156
525 185 168 27 326 42 517 50 l101 4 -10 -27 -11 -27 -166 -3 c-451 -7 -717
-70 -944 -224 -67 -45 -66 -42 -34 -183 18 -83 22 -100 42 -220 20 -122 24
-160 31 -300 8 -146 -3 -128 224 -356 198 -199 223 -221 342 -305 158 -112
374 -204 478 -204 23 0 28 -5 32 -31 l5 -31 -61 7 c-137 15 -299 90 -475 221
-113 84 -355 318 -461 447 -35 42 -67 77 -71 77 -20 0 45 -305 72 -334 5 -6 9
-16 9 -23 0 -7 17 -41 38 -76 21 -34 45 -73 53 -86 8 -14 22 -34 32 -45 32
-36 124 -170 145 -211 27 -55 51 -127 57 -175 3 -23 20 -64 39 -93 102 -157
271 -262 501 -314 11 -2 70 -6 131 -8 211 -7 386 46 539 162 106 81 174 181
194 287 14 78 55 163 126 261 137 189 171 244 207 335 32 82 55 176 62 260 l6
65 -37 -41 c-21 -23 -68 -75 -104 -115 -334 -372 -624 -568 -879 -595 l-60 -6
0 30 c0 28 2 30 54 36 265 31 571 242 940 649 l80 87 2 92 c4 175 31 361 83
593 l21 90 -42 37 c-85 75 -342 181 -488 202 -19 2 -57 8 -85 11 -27 4 -61 8
-74 11 -47 7 -227 16 -358 17 -114 1 -133 4 -133 17 0 9 -5 21 -12 28 -8 8 17
10 103 7 109 -4 246 -13 299 -19 14 -2 50 -6 80 -10 247 -29 504 -103 634
-181 32 -19 60 -35 61 -35 4 0 -3 205 -9 255 -16 119 -16 120 -69 121 -69 1
-94 24 -154 144 -74 149 -79 195 -28 246 l24 24 -32 37 c-133 153 -327 269
-551 332 -60 17 -117 31 -125 31 -10 0 -22 -17 -31 -47 -25 -77 -48 -87 -205
-91 -159 -4 -192 6 -224 70 -11 22 -17 47 -14 54 8 21 -33 16 -151 -18z m335
-1057 c4 -108 3 -201 -1 -202 -3 -1 -68 -2 -145 -3 -258 -5 -401 35 -464 131
-17 26 -31 50 -31 54 0 3 26 10 57 14 32 4 66 9 78 11 11 2 70 7 130 11 61 3
111 6 112 7 1 1 60 2 132 2 l131 1 1 -26z m480 15 c145 -14 229 -28 229 -41 0
-24 -60 -94 -102 -118 -75 -43 -167 -60 -343 -62 -88 -1 -168 0 -177 3 -16 4
-18 18 -18 118 l0 113 173 -4 c96 -2 203 -6 238 -9z m-1167 -93 c74 -145 207
-195 512 -195 l172 1 5 -25 c2 -13 1 -24 -2 -25 -3 0 -67 -2 -141 -3 -300 -7
-473 -44 -591 -127 -21 -15 -29 -16 -37 -6 -26 33 -116 257 -136 339 -6 26 -4
28 86 57 51 17 96 30 100 31 4 0 19 -21 32 -47z m1560 22 c118 -36 113 -28 82
-132 -15 -48 -48 -132 -73 -185 l-46 -98 -34 21 c-139 86 -291 119 -573 123
l-155 3 -3 25 -3 26 158 0 c318 -1 457 48 529 187 16 30 31 55 33 55 3 0 41
-11 85 -25z m-1726 -387 l39 -73 -36 -52 c-20 -29 -38 -52 -41 -53 -13 0 -151
261 -191 362 -23 58 -23 57 52 102 l54 32 42 -122 c24 -68 60 -156 81 -196z
m1970 277 c28 -20 52 -41 52 -48 0 -36 -190 -408 -208 -406 -4 0 -22 23 -40
52 l-33 51 50 106 c27 58 62 144 77 193 16 48 33 87 39 87 6 0 34 -16 63 -35z
m-1117 -247 c3 -95 0 -520 -4 -524 -11 -11 -176 19 -262 47 -152 51 -286 142
-385 260 -70 84 -77 99 -54 117 67 50 208 96 331 107 38 4 69 8 70 9 1 1 70 3
153 5 l150 2 1 -23z m447 6 c59 -6 142 -24 185 -38 72 -24 148 -64 161 -84 6
-10 -47 -79 -122 -156 -89 -91 -198 -160 -328 -204 -56 -19 -217 -52 -256 -52
-17 0 -18 20 -18 276 l0 275 135 -2 c74 -1 183 -8 243 -15z m657 -176 c-4 -35
-9 -66 -11 -69 -2 -4 -7 -69 -10 -145 l-7 -139 -43 -47 -44 -47 0 158 0 158
57 97 c31 53 58 96 60 96 3 0 2 -28 -2 -62z m-2075 -40 l54 -92 1 -153 c0 -84
-3 -153 -7 -153 -3 0 -24 20 -45 45 -34 40 -38 51 -39 102 -3 105 -18 275 -29
321 -11 44 12 20 65 -70z m237 -10 c92 -121 221 -226 348 -283 103 -47 292
-92 368 -88 16 0 26 -16 10 -18 -5 0 -17 -2 -28 -4 -11 -2 -40 -7 -65 -10 -73
-11 -195 -53 -260 -90 l-62 -35 -55 47 c-83 71 -217 216 -298 324 -61 79 -71
98 -63 115 13 23 60 94 63 94 1 0 21 -24 42 -52z m1632 -22 l20 -40 -36 -50
c-90 -127 -237 -289 -337 -373 l-48 -40 -84 42 c-77 40 -213 81 -294 89 -19 2
-39 4 -43 5 -16 2 4 20 21 19 38 -2 134 13 208 33 97 25 201 73 285 130 70 47
189 163 229 222 24 34 26 35 42 19 9 -9 25 -35 37 -56z m22 -306 l1 -143 -103
-103 c-57 -56 -111 -107 -120 -113 -15 -8 -28 0 -81 53 l-63 63 115 112 c63
61 144 149 180 195 36 46 66 83 68 81 1 -1 3 -66 3 -145z m-1721 93 c62 -83
158 -185 273 -291 l47 -43 -65 -67 -65 -66 -37 35 c-20 18 -74 70 -120 114
l-83 80 0 143 c0 78 3 142 8 142 4 0 23 -22 42 -47z m801 -240 c2 -50 0 -256
-3 -259 -2 -1 -44 11 -92 27 -88 29 -163 66 -232 112 l-35 24 33 20 c52 30
116 54 203 73 105 24 125 24 126 3z m229 -10 c71 -17 200 -71 200 -84 0 -22
-192 -119 -295 -149 l-65 -19 0 140 0 140 48 -6 c26 -4 76 -13 112 -22z m360
-217 c17 -18 30 -38 30 -43 0 -5 -28 -30 -62 -54 -136 -98 -280 -168 -389
-189 -30 -6 -64 -13 -76 -16 -23 -4 -23 -3 -23 99 l0 103 54 11 c79 17 194 67
288 127 l83 52 33 -28 c18 -15 46 -43 62 -62z m-938 43 c103 -66 275 -139 330
-139 10 0 18 -7 19 -17 1 -20 1 -149 0 -175 -1 -13 -8 -15 -33 -11 -84 12
-162 38 -263 88 -105 52 -254 151 -255 168 0 14 112 127 126 127 7 0 42 -18
76 -41z"/>
<path d="M1721 4044 c-13 -10 -48 -68 -78 -131 -60 -126 -64 -161 -20 -200 51
-47 118 -37 155 24 52 85 100 204 96 236 -10 70 -97 110 -153 71z"/>
<path d="M3784 4050 c-28 -11 -54 -53 -54 -88 0 -16 13 -55 29 -88 15 -32 38
-79 49 -104 11 -25 29 -53 39 -61 64 -56 172 -4 165 79 -1 15 -25 75 -53 133
-63 130 -102 159 -175 129z"/>
</g>
</svg>
